<svg width="31" height="31" viewBox="0 0 31 31" fill="none" xmlns="http://www.w3.org/2000/svg">
<g clip-path="url(#clip0_185_2)">
<path d="M26.3186 7.38519C26.283 7.35389 26.2451 7.32531 26.2052 7.2997L16.1843 0.897052C16.0447 0.807885 15.8827 0.760309 15.7171 0.75989C15.5515 0.759472 15.3892 0.806229 15.2492 0.89469L5.11603 7.29734C5.07788 7.32144 5.04331 7.34772 5.0108 7.37514C4.75287 7.44732 4.56348 7.68351 4.56348 7.96445V29.7051C4.56348 30.0434 4.83769 30.3176 5.17597 30.3176H26.121C26.4593 30.3176 26.7335 30.0434 26.7335 29.7051V7.96445C26.7334 7.69544 26.5598 7.46748 26.3186 7.38519Z" fill="#D1CFC3"/>
<path d="M27.7239 30.5415C27.6701 30.5415 27.6169 30.5309 27.5672 30.5104C27.5175 30.4898 27.4724 30.4597 27.4344 30.4216C27.3963 30.3836 27.3662 30.3385 27.3456 30.2888C27.3251 30.2391 27.3145 30.1859 27.3145 30.1321V18.5851C27.3145 18.4765 27.3576 18.3724 27.4344 18.2956C27.5112 18.2188 27.6153 18.1757 27.7239 18.1757C27.8325 18.1757 27.9366 18.2188 28.0134 18.2956C28.0902 18.3724 28.1333 18.4765 28.1333 18.5851V30.1321C28.1333 30.2407 28.0902 30.3448 28.0134 30.4216C27.9366 30.4984 27.8325 30.5415 27.7239 30.5415ZM3.69951 30.2339V27.5984C3.70045 27.544 3.69055 27.49 3.6704 27.4396C3.65025 27.3891 3.62024 27.3431 3.58214 27.3043C3.54403 27.2656 3.49859 27.2348 3.44846 27.2138C3.39833 27.1928 3.34451 27.1819 3.29016 27.1819C3.2358 27.1819 3.18198 27.1928 3.13185 27.2138C3.08172 27.2348 3.03628 27.2656 2.99817 27.3043C2.96007 27.3431 2.93007 27.3891 2.90991 27.4396C2.88976 27.49 2.87986 27.544 2.8808 27.5984V30.2339C2.87986 30.2883 2.88976 30.3423 2.90991 30.3928C2.93007 30.4432 2.96007 30.4892 2.99817 30.528C3.03628 30.5667 3.08172 30.5975 3.13185 30.6185C3.18198 30.6396 3.2358 30.6504 3.29016 30.6504C3.34451 30.6504 3.39833 30.6396 3.44846 30.6185C3.49859 30.5975 3.54403 30.5667 3.58214 30.528C3.62024 30.4892 3.65025 30.4432 3.6704 30.3928C3.69055 30.3423 3.70045 30.2883 3.69951 30.2339Z" fill="#8E6049"/>
<path d="M30.78 24.382C30.78 26.0699 29.4117 27.4382 27.7239 27.4382C26.036 27.4382 24.6677 26.0699 24.6677 24.382C24.6677 22.6942 26.036 21.3259 27.7239 21.3259C29.4117 21.3259 30.78 22.6942 30.78 24.382ZM27.7239 16.2157C26.5865 16.2157 25.6645 17.1377 25.6645 18.2751C25.6645 19.4125 26.5865 20.3345 27.7239 20.3345C28.8613 20.3345 29.7833 19.4125 29.7833 18.2751C29.7833 17.1377 28.8613 16.2157 27.7239 16.2157ZM3.43666 17.475C3.31946 17.4361 3.19163 17.4454 3.08129 17.5008C2.97095 17.5562 2.88713 17.6532 2.84826 17.7704C2.84826 17.7704 2.80031 17.9149 2.72117 18.168C2.6803 18.2946 2.63532 18.4482 2.58155 18.6244L2.49661 18.9051L2.40657 19.2163C2.34469 19.4332 2.27422 19.6682 2.20592 19.9167L1.99092 20.6985C1.91487 20.9696 1.84385 21.2497 1.76756 21.5344L1.54632 22.3975C1.47451 22.6867 1.40034 22.9759 1.33223 23.2606C1.26345 23.5453 1.19406 23.8255 1.13121 24.0966C1.06794 24.3677 1.00449 24.6298 0.948482 24.8783L0.78888 25.5787C0.737476 25.7956 0.706718 25.9944 0.69358 26.1707C0.68032 26.3469 0.68256 26.5006 0.694669 26.6271C0.70575 26.7536 0.725064 26.8531 0.742138 26.9208C0.75897 26.9886 0.773925 27.0248 0.773925 27.0248C1.04148 27.6652 1.55546 28.2114 2.24733 28.4982C3.63701 29.0741 5.23036 28.4144 5.80628 27.0248C5.80628 27.0248 5.82123 26.9886 5.83807 26.9208C5.85514 26.8531 5.87445 26.7536 5.88553 26.6271C5.89764 26.5006 5.89994 26.3469 5.88662 26.1707C5.87349 25.9944 5.84273 25.7957 5.79132 25.5787L5.63172 24.8783C5.57572 24.6298 5.51226 24.3677 5.44899 24.0966C5.38614 23.8255 5.31676 23.5453 5.24798 23.2606C5.17986 22.9759 5.10575 22.6868 5.03388 22.3975L4.81264 21.5344C4.73636 21.2497 4.66533 20.9696 4.58929 20.6985L4.37428 19.9167C4.30605 19.6682 4.23557 19.4332 4.17363 19.2163L4.0836 18.9051L3.99865 18.6244C3.94489 18.4482 3.89996 18.2946 3.85903 18.168C3.77984 17.915 3.73188 17.7704 3.73188 17.7704C3.68684 17.6367 3.58088 17.5227 3.43666 17.475Z" fill="#29A53B"/>
<path d="M12.7334 22.3978H18.7495V30.3175H12.7334V22.3978Z" fill="#2B3B47"/>
<path d="M3.67964 8.99705H4.69773C4.78224 8.99705 4.86508 8.97361 4.93707 8.92936L15.6304 2.35185C15.7032 2.30702 15.7872 2.28354 15.8727 2.2841C15.9582 2.28465 16.0419 2.30922 16.1141 2.355L26.4911 8.92621C26.5642 8.97253 26.6489 8.99712 26.7355 8.99711H27.6529C28.1069 8.99711 28.2829 8.4066 27.9029 8.15806L16.1243 0.452861C16.051 0.404877 15.9655 0.378997 15.8779 0.37831C15.7903 0.377623 15.7043 0.402157 15.6303 0.448986L3.43563 8.15412C3.04868 8.39861 3.2219 8.99705 3.67964 8.99705Z" fill="#FF473E"/>
<path d="M10.5553 26.1766H8.49258C8.37696 26.1766 8.26608 26.1306 8.18432 26.0489C8.10257 25.9671 8.05664 25.8562 8.05664 25.7406V24.9523C8.05664 24.8367 8.10257 24.7258 8.18432 24.644C8.26608 24.5623 8.37696 24.5164 8.49258 24.5164H10.5553C10.6709 24.5164 10.7818 24.5623 10.8635 24.644C10.9453 24.7258 10.9912 24.8367 10.9912 24.9523V25.7406C10.9912 25.8562 10.9453 25.9671 10.8635 26.0489C10.7818 26.1306 10.6709 26.1766 10.5553 26.1766ZM17.8368 26.1761C17.5609 26.1761 17.3373 26.3997 17.3373 26.6756C17.3373 26.9515 17.5609 27.1751 17.8368 27.1751C18.1127 27.1751 18.3363 26.9515 18.3363 26.6756C18.3363 26.3997 18.1126 26.1761 17.8368 26.1761Z" fill="#E2A042"/>
<path d="M12.2002 10.3683V15.3167C12.2002 15.4323 12.1543 15.5432 12.0725 15.6249C11.9908 15.7067 11.8799 15.7526 11.7643 15.7526H9.34341C9.22779 15.7526 9.11691 15.7067 9.03515 15.6249C8.9534 15.5432 8.90747 15.4323 8.90747 15.3167V10.3683C8.90747 10.2527 8.9534 10.1418 9.03515 10.0601C9.11691 9.9783 9.22779 9.93237 9.34341 9.93237H11.7643C11.8799 9.93237 11.9908 9.9783 12.0725 10.0601C12.1543 10.1418 12.2002 10.2527 12.2002 10.3683ZM22.1137 9.93237H19.6928C19.5772 9.93237 19.4663 9.9783 19.3846 10.0601C19.3028 10.1418 19.2569 10.2527 19.2569 10.3683V15.3167C19.2569 15.4323 19.3028 15.5432 19.3846 15.6249C19.4663 15.7067 19.5772 15.7526 19.6928 15.7526H22.1137C22.2293 15.7526 22.3402 15.7067 22.4219 15.6249C22.5037 15.5432 22.5496 15.4323 22.5496 15.3167V10.3683C22.5496 10.2527 22.5037 10.1418 22.4219 10.0601C22.3402 9.9783 22.2293 9.93237 22.1137 9.93237Z" fill="#464A4C"/>
<path d="M12.3717 16.5334H8.73599C8.62037 16.5334 8.50949 16.4875 8.42773 16.4057C8.34598 16.324 8.30005 16.2131 8.30005 16.0975V15.7841C8.30005 15.6685 8.34598 15.5576 8.42773 15.4758C8.50949 15.3941 8.62037 15.3481 8.73599 15.3481H12.3717C12.4873 15.3481 12.5982 15.3941 12.68 15.4758C12.7617 15.5576 12.8076 15.6685 12.8076 15.7841V16.0975C12.8076 16.2131 12.7617 16.324 12.68 16.4057C12.5982 16.4875 12.4873 16.5334 12.3717 16.5334ZM23.157 16.0975V15.7841C23.157 15.6685 23.1111 15.5576 23.0294 15.4758C22.9476 15.3941 22.8367 15.3481 22.7211 15.3481H19.0854C18.9698 15.3481 18.8589 15.3941 18.7771 15.4758C18.6954 15.5576 18.6494 15.6685 18.6494 15.7841V16.0975C18.6494 16.2131 18.6954 16.324 18.7771 16.4057C18.8589 16.4875 18.9698 16.5334 19.0854 16.5334H22.7211C22.8367 16.5334 22.9476 16.4875 23.0294 16.4057C23.1111 16.324 23.157 16.2131 23.157 16.0975ZM19.4152 22.9359C19.9581 22.9359 20.3461 22.4254 20.224 21.8965C19.7528 19.8564 17.9248 18.3355 15.7415 18.3355C13.5582 18.3355 11.7301 19.8564 11.259 21.8965C11.1369 22.4255 11.5249 22.9359 12.0678 22.9359H19.4152Z" fill="#8E7B70"/>
</g>
<defs>
<clipPath id="clip0_185_2">
<rect width="31" height="31" fill="white"/>
</clipPath>
</defs>
</svg>
