<svg width="36" height="36" viewBox="0 0 36 36" fill="none" xmlns="http://www.w3.org/2000/svg">
<g clip-path="url(#clip0_76_2)">
<path d="M23.81 26C23.46 26.9 22.87 27.5 22.2 27.5H13.74C13.06 27.5 12.48 26.9 12.13 26H1V27.75C1.05118 28.3913 1.35255 28.9867 1.83901 29.4077C2.32548 29.8287 2.95801 30.0414 3.6 30H32.4C33.042 30.0414 33.6745 29.8287 34.161 29.4077C34.6475 28.9867 34.9488 28.3913 35 27.75V26H23.81Z" fill="black"/>
<path d="M7.00006 10H29.0001V24H32.0001V7.57C32.0081 7.16324 31.8549 6.76981 31.5738 6.47565C31.2928 6.18149 30.9068 6.01049 30.5001 6H5.50006C5.09335 6.01049 4.70732 6.18149 4.42627 6.47565C4.14522 6.76981 3.992 7.16324 4.00006 7.57V24H7.00006V10Z" fill="black"/>
</g>
<defs>
<clipPath id="clip0_76_2">
<rect width="36" height="36" fill="white"/>
</clipPath>
</defs>
</svg>
