<svg viewBox="0 0 31 31" fill="none" xmlns="http://www.w3.org/2000/svg">
<circle cx="15.5" cy="15.5" r="15.5" fill="#F3B4B4"/>
<g clip-path="url(#clip0_66_1763)">
<path d="M16.707 8.5C16.5195 8.31253 16.2652 8.20721 16 8.20721C15.7349 8.20721 15.4805 8.31253 15.293 8.5L8.64602 15.146C8.59953 15.1925 8.56266 15.2477 8.5375 15.3084C8.51234 15.3692 8.49939 15.4343 8.49939 15.5C8.49939 15.5657 8.51234 15.6308 8.5375 15.6916C8.56266 15.7523 8.59953 15.8075 8.64602 15.854C8.73991 15.9479 8.86725 16.0006 9.00002 16.0006C9.06577 16.0006 9.13087 15.9877 9.1916 15.9625C9.25234 15.9374 9.30753 15.9005 9.35402 15.854L16 9.207L22.646 15.854C22.7399 15.9479 22.8672 16.0006 23 16.0006C23.1328 16.0006 23.2601 15.9479 23.354 15.854C23.4479 15.7601 23.5007 15.6328 23.5007 15.5C23.5007 15.3672 23.4479 15.2399 23.354 15.146L21 12.793V9.5C21 9.36739 20.9473 9.24022 20.8536 9.14645C20.7598 9.05268 20.6326 9 20.5 9H19.5C19.3674 9 19.2402 9.05268 19.1465 9.14645C19.0527 9.24022 19 9.36739 19 9.5V10.793L16.707 8.5Z" fill="#C55A5A"/>
<path d="M16 10.293L20.712 15.005C19.88 14.9657 19.0534 15.1581 18.3243 15.5608C17.5951 15.9634 16.9921 16.5605 16.5822 17.2856C16.1723 18.0107 15.9717 18.8354 16.0028 19.6677C16.0338 20.5001 16.2953 21.3075 16.758 22H11.5C11.1022 22 10.7206 21.842 10.4393 21.5607C10.158 21.2794 10 20.8979 10 20.5V16.293L16 10.293Z" fill="#C55A5A"/>
<path d="M20.5 23C21.4283 23 22.3185 22.6313 22.9749 21.9749C23.6313 21.3185 24 20.4283 24 19.5C24 18.5717 23.6313 17.6815 22.9749 17.0251C22.3185 16.3687 21.4283 16 20.5 16C19.5717 16 18.6815 16.3687 18.0251 17.0251C17.3687 17.6815 17 18.5717 17 19.5C17 20.4283 17.3687 21.3185 18.0251 21.9749C18.6815 22.6313 19.5717 23 20.5 23ZM19.854 18.146L20.5 18.793L21.146 18.147C21.2398 18.0531 21.367 18.0003 21.4996 18.0002C21.5653 18.0002 21.6304 18.0131 21.6911 18.0382C21.7518 18.0633 21.807 18.1001 21.8535 18.1465C21.9 18.1929 21.9369 18.248 21.9621 18.3087C21.9872 18.3694 22.0002 18.4344 22.0003 18.5001C22.0003 18.5658 21.9874 18.6309 21.9623 18.6916C21.9372 18.7523 21.9004 18.8075 21.854 18.854L21.207 19.5L21.854 20.146C21.9479 20.2399 22.0006 20.3672 22.0006 20.5C22.0006 20.6328 21.9479 20.7601 21.854 20.854C21.7601 20.9479 21.6328 21.0006 21.5 21.0006C21.3672 21.0006 21.2399 20.9479 21.146 20.854L20.5 20.207L19.854 20.854C19.7602 20.9479 19.633 21.0007 19.5004 21.0008C19.3677 21.0009 19.2404 20.9483 19.1465 20.8545C19.0526 20.7607 18.9998 20.6335 18.9997 20.5009C18.9996 20.3682 19.0522 20.2409 19.146 20.147L19.793 19.5L19.146 18.854C19.0522 18.7601 18.9996 18.6328 18.9997 18.5001C18.9998 18.3675 19.0526 18.2403 19.1465 18.1465C19.2404 18.0527 19.3677 18.0001 19.5004 18.0002C19.633 18.0003 19.7602 18.0531 19.854 18.147V18.146Z" fill="#C55A5A"/>
</g>
<defs>
<clipPath id="clip0_66_1763">
<rect width="16" height="16" fill="white" transform="translate(8 7)"/>
</clipPath>
</defs>
</svg>
