<svg viewBox="0 0 31 31" fill="none" xmlns="http://www.w3.org/2000/svg">
<circle cx="15.5" cy="15.5" r="15.5" fill="#B7BFEF"/>
<g clip-path="url(#clip0_66_1773)">
<path d="M24.9938 13.9844C24.9938 14.5469 24.525 14.9875 23.9938 14.9875H22.9938L23.0157 19.9937C23.0219 21.1031 22.125 22.0031 21.0157 22.0031H11.0032C9.90005 22.0031 9.00317 21.1062 9.00317 20.0031V14.9906H8.00317C7.44067 14.9906 7.00317 14.5531 7.00317 13.9875C7.00317 13.7063 7.09692 13.4563 7.31567 13.2375L15.325 6.25C15.5438 6.03125 15.7938 6 16.0125 6C16.2313 6 16.4813 6.0625 16.6688 6.21875L24.65 13.2344C24.9 13.4531 25.025 13.7031 24.9938 13.9844ZM18 13C18 12.4696 17.7893 11.9609 17.4143 11.5858C17.0392 11.2107 16.5305 11 16 11C15.4696 11 14.9609 11.2107 14.5858 11.5858C14.2108 11.9609 14 12.4696 14 13C14 13.5304 14.2108 14.0391 14.5858 14.4142C14.9609 14.7893 15.4696 15 16 15C16.5305 15 17.0392 14.7893 17.4143 14.4142C17.7893 14.0391 18 13.5304 18 13ZM15 16C13.6188 16 12.5 17.1187 12.5 18.5C12.5 18.775 12.725 19 13 19H19C19.275 19 19.5 18.775 19.5 18.5C19.5 17.1187 18.3813 16 17 16H15Z" fill="#465FFF" fill-opacity="0.68"/>
</g>
<defs>
<clipPath id="clip0_66_1773">
<rect width="18" height="16" fill="white" transform="translate(7 6)"/>
</clipPath>
</defs>
</svg>
