<svg  viewBox="0 0 32 32" fill="none" xmlns="http://www.w3.org/2000/svg">
<circle cx="16" cy="16" r="16" fill="#BBF1D9"/>
<g clip-path="url(#clip0_66_1787)">
<path d="M16.707 8.5C16.5195 8.31253 16.2652 8.20721 16 8.20721C15.7349 8.20721 15.4805 8.31253 15.293 8.5L8.64602 15.146C8.59953 15.1925 8.56266 15.2477 8.5375 15.3084C8.51234 15.3692 8.49939 15.4343 8.49939 15.5C8.49939 15.5657 8.51234 15.6308 8.5375 15.6916C8.56266 15.7523 8.59953 15.8075 8.64602 15.854C8.73991 15.9479 8.86725 16.0006 9.00002 16.0006C9.06577 16.0006 9.13087 15.9877 9.1916 15.9625C9.25234 15.9374 9.30753 15.9005 9.35402 15.854L16 9.207L22.646 15.854C22.7399 15.9479 22.8672 16.0006 23 16.0006C23.1328 16.0006 23.2601 15.9479 23.354 15.854C23.4479 15.7601 23.5007 15.6328 23.5007 15.5C23.5007 15.3672 23.4479 15.2399 23.354 15.146L21 12.793V9.5C21 9.36739 20.9473 9.24022 20.8536 9.14645C20.7598 9.05268 20.6326 9 20.5 9H19.5C19.3674 9 19.2402 9.05268 19.1465 9.14645C19.0527 9.24022 19 9.36739 19 9.5V10.793L16.707 8.5Z" fill="#5EBD93"/>
<path d="M16 10.293L20.712 15.005C19.88 14.9657 19.0534 15.1581 18.3243 15.5608C17.5951 15.9634 16.9921 16.5605 16.5822 17.2856C16.1723 18.0107 15.9717 18.8354 16.0028 19.6677C16.0338 20.5001 16.2953 21.3075 16.758 22H11.5C11.1022 22 10.7206 21.842 10.4393 21.5607C10.158 21.2794 10 20.8979 10 20.5V16.293L16 10.293Z" fill="#5EBD93"/>
<path d="M20.5 23C21.4283 23 22.3185 22.6313 22.9749 21.9749C23.6313 21.3185 24 20.4283 24 19.5C24 18.5717 23.6313 17.6815 22.9749 17.0251C22.3185 16.3687 21.4283 16 20.5 16C19.5717 16 18.6815 16.3687 18.0251 17.0251C17.3687 17.6815 17 18.5717 17 19.5C17 20.4283 17.3687 21.3185 18.0251 21.9749C18.6815 22.6313 19.5717 23 20.5 23ZM22.179 18.507L20.844 20.733C20.7853 20.8308 20.7051 20.9139 20.6095 20.9761C20.5139 21.0382 20.4053 21.0777 20.2922 21.0916C20.179 21.1055 20.0641 21.0934 19.9563 21.0562C19.8485 21.019 19.7506 20.9577 19.67 20.877L18.896 20.104C18.8022 20.0101 18.7496 19.8828 18.7497 19.7501C18.7498 19.6175 18.8026 19.4903 18.8965 19.3965C18.9904 19.3027 19.1177 19.2501 19.2504 19.2502C19.383 19.2503 19.5102 19.3031 19.604 19.397L20.151 19.944L21.321 17.993C21.3547 17.9367 21.3993 17.8875 21.452 17.8484C21.5047 17.8093 21.5647 17.7809 21.6284 17.7649C21.6921 17.749 21.7583 17.7457 21.8233 17.7553C21.8882 17.7649 21.9507 17.7873 22.007 17.821C22.0633 17.8547 22.1125 17.8993 22.1516 17.952C22.1907 18.0047 22.2191 18.0647 22.2351 18.1284C22.251 18.1921 22.2543 18.2583 22.2447 18.3233C22.2351 18.3882 22.2127 18.4507 22.179 18.507Z" fill="#5EBD93"/>
</g>
<defs>
<clipPath id="clip0_66_1787">
<rect width="16" height="16" fill="white" transform="translate(8 7)"/>
</clipPath>
</defs>
</svg>
