<svg width="10" height="5" viewBox="0 0 11 6"  xmlns="http://www.w3.org/2000/svg">
<path d="M0.531835 0C0.426624 9.20453e-05 0.323799 0.0311939 0.236349 0.0893772C0.148898 0.147561 0.0807434 0.230215 0.0404932 0.326903C0.000242963 0.42359 -0.0102976 0.529973 0.0102027 0.632616C0.0307031 0.735258 0.0813246 0.829556 0.155674 0.903599L5.12384 5.84516C5.22365 5.94431 5.35894 6 5.5 6C5.64106 6 5.77635 5.94431 5.87616 5.84516L10.8443 0.903599C10.9187 0.829556 10.9693 0.735258 10.9898 0.632616C11.0103 0.529973 10.9998 0.42359 10.9595 0.326903C10.9193 0.230215 10.8511 0.147561 10.7637 0.0893772C10.6762 0.0311939 10.5734 9.20453e-05 10.4682 0H0.531835Z" fill="currentColor"/>
</svg>
