<svg width="157" height="32" viewBox="0 0 157 32" fill="none" xmlns="http://www.w3.org/2000/svg">
<path d="M0 8.42105C0 3.77023 3.77023 0 8.42105 0H23.5789C28.2298 0 32 3.77023 32 8.42105V23.5789C32 28.2298 28.2298 32 23.5789 32H8.42105C3.77023 32 0 28.2298 0 23.5789V8.42105Z" fill="#465FFF"/>
<path d="M0 8.42105C0 3.77023 3.77023 0 8.42105 0H23.5789C28.2298 0 32 3.77023 32 8.42105V23.5789C32 28.2298 28.2298 32 23.5789 32H8.42105C3.77023 32 0 28.2298 0 23.5789V8.42105Z" fill="#465FFF"/>
<g filter="url(#filter0_d_46_178)">
<path d="M8.42383 8.42153C8.42383 7.49136 9.17787 6.7373 10.108 6.7373C11.0382 6.7373 11.7922 7.49136 11.7922 8.42153V23.5794C11.7922 24.5096 11.0382 25.2636 10.108 25.2636C9.17787 25.2636 8.42383 24.5096 8.42383 23.5794V8.42153Z" fill="white"/>
</g>
<g filter="url(#filter1_d_46_178)">
<path d="M14.7422 15.1569C14.7422 14.2267 15.4962 13.4727 16.4264 13.4727C17.3566 13.4727 18.1106 14.2267 18.1106 15.1569V23.5779C18.1106 24.5081 17.3566 25.2621 16.4264 25.2621C15.4962 25.2621 14.7422 24.5081 14.7422 23.5779V15.1569Z" fill="white" fill-opacity="0.9"/>
</g>
<g filter="url(#filter2_d_46_178)">
<path d="M21.0547 10.9459C21.0547 10.0158 21.8087 9.26172 22.7389 9.26172C23.6691 9.26172 24.4231 10.0158 24.4231 10.9459V23.5775C24.4231 24.5077 23.6691 25.2617 22.7389 25.2617C21.8087 25.2617 21.0547 24.5077 21.0547 23.5775V10.9459Z" fill="white" fill-opacity="0.7"/>
</g>
<path d="M148.292 17.6492C148.292 18.2536 149.363 24.5691 148.292 25C147.221 25.4309 146.459 25.2649 145.336 25C144.212 24.7351 144.259 12.6971 145.336 12.4546C146.412 12.212 147.66 11.7899 148.162 12.4546C148.663 13.1192 148.104 14.5824 148.162 14.5863C148.219 14.5903 148.02 15.2887 148.309 14.5863C148.597 13.8839 149.055 13.3258 149.689 12.9119C150.323 12.4981 151.148 12.2912 152.049 12.2912C152.95 12.2912 153.667 12.4763 154.312 12.8466C154.957 13.2169 155.458 13.7532 155.815 14.4556C156.171 15.158 156.351 16.0102 156.345 17.0121C156.34 18.014 157.428 24.5992 156.345 25C155.263 25.4008 154.464 25.422 153.389 25C152.314 24.578 153.389 18.308 153.389 17.4695C153.389 16.6309 153.168 15.9748 152.735 15.5011C152.303 15.0274 151.586 14.7905 150.947 14.7905C150.307 14.7905 149.967 14.9076 149.566 15.1335C149.166 15.3595 148.853 15.6808 148.627 16.1055C148.401 16.5302 148.292 17.0448 148.292 17.6492Z" fill="#101828"/>
<path d="M140.908 25C140.023 25 139.287 24.3178 139.219 23.4347L139.137 22.3497C139.119 22.1174 139.129 21.8839 139.168 21.6542L139.291 20.9241C139.505 19.6563 139.432 18.3606 139.172 17.1015C138.772 15.1687 138.381 12.4545 139.339 12.4545V12.4545C140.858 12.4545 142.12 13.6271 142.232 15.1425L142.274 15.7175C142.288 15.9055 142.287 16.0944 142.271 16.2822L142.137 17.8173C142.069 18.5955 142.18 19.3788 142.462 20.1073L142.662 20.6254C142.883 21.1966 142.936 21.8189 142.815 22.4192L142.569 23.6404C142.41 24.4312 141.715 25 140.908 25V25ZM140.825 10.674C140.357 10.674 139.954 10.5188 139.616 10.2084C139.279 9.89261 139.11 9.51418 139.11 9.07313C139.11 8.62663 139.279 8.2482 139.616 7.93783C139.954 7.62202 140.357 7.46411 140.825 7.46411C141.299 7.46411 141.702 7.62202 142.034 7.93783C142.371 8.2482 142.54 8.62663 142.54 9.07313C142.54 9.51418 142.371 9.89261 142.034 10.2084C141.702 10.5188 141.299 10.674 140.825 10.674Z" fill="#101828"/>
<path d="M118.697 25C117.573 24.7351 117.62 12.6971 118.697 12.4546C119.774 12.212 121.022 11.7899 121.523 12.4546C122.024 13.1192 121.466 14.5824 121.523 14.5863C121.58 14.5903 121.409 15.3051 121.67 14.5863C121.931 13.8676 122.364 13.3094 122.969 12.9038C123.573 12.4981 124.289 12.2912 125.133 12.2912C125.977 12.2912 126.696 12.5008 127.281 12.9119C127.866 13.3231 128.283 13.8784 128.523 14.5863C128.762 15.2942 128.375 15.2833 128.653 14.5863C128.931 13.8893 129.396 13.3367 130.058 12.9201C130.72 12.5036 131.387 12.2912 132.418 12.2912C133.45 12.2912 134.515 12.656 135.244 13.3857C135.974 14.1153 136.339 15.1798 136.339 16.5792C136.339 17.9786 137.431 24.6155 136.339 25C135.247 25.3845 134.459 25.404 133.374 25C132.289 24.596 133.374 17.8152 133.374 17.0366C133.374 16.2579 133.167 15.6917 132.753 15.3296C132.34 14.9675 131.89 14.7823 131.234 14.7823C130.578 14.7823 129.96 15.0083 129.56 15.4521C129.16 15.8959 128.964 16.4676 128.964 17.1754C128.964 17.8833 130.025 24.6066 128.964 25C127.902 25.3935 127.13 25.3822 126.064 25C124.998 24.6178 126.064 17.562 126.064 16.9141C126.064 16.2661 125.865 15.7488 125.476 15.3622C125.087 14.9756 124.482 14.7823 123.957 14.7823C123.431 14.7823 123.146 14.894 122.797 15.109C122.449 15.3241 122.171 15.6263 121.964 16.0156C121.757 16.405 121.654 16.8542 121.654 17.3715C121.654 17.8887 122.73 24.5827 121.654 25C120.577 25.4173 119.821 25.2649 118.697 25Z" fill="#101828"/>
<path d="M109.17 24.9478C108.318 24.9478 107.302 24.6946 106.524 24.1882C105.745 23.6818 105.13 22.9467 104.678 21.9829C104.226 21.0192 104 19.8566 104 18.4709C104 17.0851 104.226 15.9035 104.686 14.9425C105.146 13.9814 105.772 13.2545 106.556 12.7617C107.341 12.2689 108.455 12.0107 109.178 12.0184C109.901 12.0262 110.518 12.1464 110.991 12.3942C111.465 12.6419 111.816 12.9442 112.119 13.2844C112.422 13.6246 112.716 14.2524 112.764 14.2564C112.812 14.2603 112.839 14.2573 112.886 14.2564C112.934 14.2554 111.84 8.49582 112.886 7.99998C113.933 7.50415 114.711 7.79791 115.851 7.99998C116.991 8.20206 116.97 24.5328 115.851 24.7273C114.732 24.9217 113.377 25.3656 112.944 24.7273C112.51 24.0889 113.013 22.757 112.944 22.7507C112.874 22.7443 112.916 22.4458 112.764 22.7507C112.611 23.0556 112.391 23.3823 112.102 23.7226C111.814 24.063 111.433 24.3488 110.959 24.5884C110.485 24.828 110.022 24.9478 109.17 24.9478ZM109.995 22.522C110.632 22.522 111.155 22.3559 111.596 22.0156C112.037 21.6753 112.372 21.1961 112.601 20.5863C112.829 19.9764 112.88 19.2622 112.944 18.4545C113.007 17.6468 113.232 17.0909 112.944 16.38C112.655 15.669 112.042 15.2746 111.604 14.9425C111.166 14.6103 110.643 14.4442 109.995 14.4442C109.347 14.4442 108.794 14.5994 108.353 14.9425C107.912 15.2855 107.572 15.7756 107.349 16.38C107.125 16.9844 107.014 17.6732 107.014 18.4545C107.014 19.2359 107.123 19.941 107.349 20.5536C107.575 21.1662 107.91 21.6481 108.353 21.9993C108.797 22.3505 109.358 22.522 109.995 22.522Z" fill="#101828"/>
<path d="M90.2267 25C88.989 25.2521 88.2348 25.2275 86.9924 25C85.7499 24.7725 91.445 8.53978 92.8812 8.27271C94.3174 8.00565 95.1857 8.00574 96.622 8.27271C98.0582 8.53968 103.761 24.7725 102.519 25C101.277 25.2275 100.522 25.252 99.2846 25C98.0469 24.748 94.868 11.7036 94.8169 11.7031C94.7659 11.7027 94.7373 11.7027 94.6862 11.7031C94.6352 11.7036 91.4644 24.7479 90.2267 25ZM90.3329 18.4414C90.5857 17.5251 98.9011 17.5251 99.1539 18.4414C99.4068 19.3577 99.4068 19.9591 99.1539 20.8753C98.9011 21.7916 90.5857 21.7916 90.3329 20.8753C90.0801 19.9591 90.0801 19.3577 90.3329 18.4414Z" fill="#101828"/>
<path d="M65.8524 25.245C64.5946 25.245 63.5083 24.9837 62.5936 24.4609C61.6842 23.9328 60.9845 23.1868 60.4945 22.223C60.0044 21.2538 59.7594 20.1131 59.7594 18.8008C59.7594 17.5103 60.0044 16.3777 60.4945 15.4031C60.99 14.4229 61.6815 13.6606 62.5691 13.1161C63.4566 12.5662 64.4993 12.2912 65.6973 12.2912C66.4705 12.2912 67.2001 12.4164 67.8862 12.6669C68.5777 12.9119 69.1875 13.2931 69.7157 13.8104C70.2493 14.3277 70.6686 14.9865 70.9735 15.7869C71.2785 16.5819 71.4309 17.5294 71.4309 18.6293V18.6293C71.4309 19.13 71.025 19.5359 70.5243 19.5359H62.1443C61.594 19.5359 61.1479 19.0897 61.1479 18.5394V18.5394C61.1479 17.9891 61.594 17.543 62.1443 17.543H67.0259C67.891 17.543 68.6422 16.7922 68.2292 16.032V16.032C67.9896 15.5855 67.6548 15.2343 67.2246 14.9783C66.7999 14.7224 66.3044 14.5945 65.7381 14.5945C65.1337 14.5945 64.6028 14.7415 64.1454 15.0355C63.688 15.3241 63.3314 15.7053 63.0755 16.179C62.825 16.6473 62.697 17.1618 62.6916 17.7227V19.4624C62.6916 20.192 62.825 20.8182 63.0918 21.3409C63.3586 21.8582 63.7316 22.2557 64.2107 22.5334C64.6899 22.8056 65.2508 22.9418 65.8933 22.9418C66.3234 22.9418 66.7128 22.8819 67.0612 22.7621C67.4097 22.6368 67.7119 22.4544 67.9679 22.2148V22.2148C68.4276 21.7845 68.9875 21.374 69.6133 21.4444L69.6777 21.4516C70.5441 21.549 71.1453 22.4108 70.6462 23.1258C70.5444 23.2716 70.433 23.4117 70.312 23.5462C69.8273 24.0852 69.2066 24.5045 68.4497 24.804C67.6929 25.098 66.8271 25.245 65.8524 25.245Z" fill="#101828"/>
<path d="M45.6498 25C44.4854 24.7891 43.3561 9.13285 45.6498 8.27272C47.9435 7.41259 50.6375 8.27272 51.9225 8.27272C53.2075 8.27272 54.2829 8.49597 55.1569 8.94247C56.0308 9.38896 56.6924 10.0179 57.1416 10.821C57.5908 11.6242 57.8195 12.5526 57.8195 13.6225C57.8195 14.6925 57.5881 15.629 57.1334 16.4158C56.6788 17.2026 56.0145 17.8098 55.1324 18.2372C54.2503 18.6647 53.1667 18.8743 51.8817 18.8743C50.5966 18.8743 47.896 19.7303 47.414 18.8743C46.932 18.0182 46.8965 17.1937 47.414 16.3587C47.9315 15.5236 50.7219 16.3587 51.4733 16.3587C52.2247 16.3587 52.84 16.2579 53.3192 16.0483C53.7983 15.8387 54.1495 15.531 54.381 15.1253C54.6124 14.7197 54.7322 14.216 54.7322 13.6225C54.7322 13.029 54.6151 12.5253 54.381 12.1033C54.1468 11.6813 53.7902 11.3601 53.311 11.1396C52.8318 10.919 52.2138 10.8047 51.4569 10.8047C50.7001 10.8047 49.7443 10.5965 48.68 10.8047C47.6157 11.0129 49.8372 24.753 48.68 25C47.5227 25.247 46.8142 25.2109 45.6498 25ZM54.2911 17.4204C55.5338 17.7733 59.6483 24.4856 58.4321 25C57.2159 25.5144 56.3183 25.3702 55.0507 25C53.7831 24.6298 49.7897 17.9147 50.9832 17.4204C52.1767 16.9262 53.0484 17.0676 54.2911 17.4204Z" fill="#101828"/>
<path d="M76.782 17.5516C76.782 18.156 77.8532 24.4715 76.782 24.9024C75.7107 25.3333 74.9492 25.1673 73.8253 24.9024C72.7014 24.6376 72.7486 12.5995 73.8253 12.357C74.9019 12.1144 76.1499 11.6924 76.6513 12.357C77.1526 13.0216 76.594 14.4848 76.6513 14.4887C76.7086 14.4927 76.5097 15.1911 76.7983 14.4887C77.0869 13.7863 77.5443 13.2282 78.1786 12.8144C78.813 12.4005 79.6379 12.1936 80.5391 12.1936C81.4402 12.1936 82.1563 12.3787 82.8015 12.749C83.4467 13.1193 83.9477 13.6556 84.3043 14.358C84.661 15.0604 84.8407 15.9126 84.8352 16.9145C84.8298 17.9164 85.9181 24.5016 84.8352 24.9024C83.7524 25.3032 82.9533 25.3244 81.8786 24.9024C80.8038 24.4804 81.8786 18.2104 81.8786 17.3719C81.8786 16.5333 81.658 15.8772 81.2252 15.4035C80.7923 14.9298 80.0762 14.6929 79.4364 14.6929C78.7966 14.6929 78.4563 14.81 78.0561 15.0359C77.6559 15.2619 77.3428 15.5832 77.1168 16.0079C76.8909 16.4326 76.782 16.9472 76.782 17.5516Z" fill="#101828"/>
<defs>
<filter id="filter0_d_46_178" x="7.42383" y="6.2373" width="5.36841" height="20.5263" filterUnits="userSpaceOnUse" color-interpolation-filters="sRGB">
<feFlood flood-opacity="0" result="BackgroundImageFix"/>
<feColorMatrix in="SourceAlpha" type="matrix" values="0 0 0 0 0 0 0 0 0 0 0 0 0 0 0 0 0 0 127 0" result="hardAlpha"/>
<feOffset dy="0.5"/>
<feGaussianBlur stdDeviation="0.5"/>
<feComposite in2="hardAlpha" operator="out"/>
<feColorMatrix type="matrix" values="0 0 0 0 0 0 0 0 0 0 0 0 0 0 0 0 0 0 0.12 0"/>
<feBlend mode="normal" in2="BackgroundImageFix" result="effect1_dropShadow_46_178"/>
<feBlend mode="normal" in="SourceGraphic" in2="effect1_dropShadow_46_178" result="shape"/>
</filter>
<filter id="filter1_d_46_178" x="13.7422" y="12.9727" width="5.36841" height="13.7894" filterUnits="userSpaceOnUse" color-interpolation-filters="sRGB">
<feFlood flood-opacity="0" result="BackgroundImageFix"/>
<feColorMatrix in="SourceAlpha" type="matrix" values="0 0 0 0 0 0 0 0 0 0 0 0 0 0 0 0 0 0 127 0" result="hardAlpha"/>
<feOffset dy="0.5"/>
<feGaussianBlur stdDeviation="0.5"/>
<feComposite in2="hardAlpha" operator="out"/>
<feColorMatrix type="matrix" values="0 0 0 0 0 0 0 0 0 0 0 0 0 0 0 0 0 0 0.12 0"/>
<feBlend mode="normal" in2="BackgroundImageFix" result="effect1_dropShadow_46_178"/>
<feBlend mode="normal" in="SourceGraphic" in2="effect1_dropShadow_46_178" result="shape"/>
</filter>
<filter id="filter2_d_46_178" x="20.0547" y="8.76172" width="5.36841" height="18" filterUnits="userSpaceOnUse" color-interpolation-filters="sRGB">
<feFlood flood-opacity="0" result="BackgroundImageFix"/>
<feColorMatrix in="SourceAlpha" type="matrix" values="0 0 0 0 0 0 0 0 0 0 0 0 0 0 0 0 0 0 127 0" result="hardAlpha"/>
<feOffset dy="0.5"/>
<feGaussianBlur stdDeviation="0.5"/>
<feComposite in2="hardAlpha" operator="out"/>
<feColorMatrix type="matrix" values="0 0 0 0 0 0 0 0 0 0 0 0 0 0 0 0 0 0 0.12 0"/>
<feBlend mode="normal" in2="BackgroundImageFix" result="effect1_dropShadow_46_178"/>
<feBlend mode="normal" in="SourceGraphic" in2="effect1_dropShadow_46_178" result="shape"/>
</filter>
</defs>
</svg>
